HIERARCHY
ROOT Hips
{
  OFFSET 0.000000 0.000000 0.000000
  CHANNELS 6 Xposition Yposition Zposition Xrotation Yrotation Zrotation
  JOINT Spine
  {
    OFFSET -6.423313 -17.000212 -13.334487
    CHANNELS 3 Xrotation Yrotation Zrotation
    JOINT Chest
    {
      OFFSET -6.423313 -17.000212 -13.334487
      CHANNELS 3 Xrotation Yrotation Zrotation
      JOINT Neck
      {
        OFFSET -8.565987 -10.465851 -10.311200
        CHANNELS 3 Xrotation Yrotation Zrotation
        JOINT Head
        {
          OFFSET -6.506337 7.210322 3.531532
          CHANNELS 3 Xrotation Yrotation Zrotation
          End Site
          {
            OFFSET 0.0 5.0 2.0
          }
        }
      }
      JOINT LeftShoulder
      {
        OFFSET 16.191032 -0.222631 -5.090955
        CHANNELS 3 Xrotation Yrotation Zrotation
        JOINT LeftArm
        {
          OFFSET 10.448869 20.915173 -1.238295
          CHANNELS 3 Xrotation Yrotation Zrotation
          JOINT LeftForeArm
          {
            OFFSET 6.900823 23.754111 -0.858906
            CHANNELS 3 Xrotation Yrotation Zrotation
            JOINT LeftHand
            {
              OFFSET 0.929018 7.328410 2.677089
              CHANNELS 3 Xrotation Yrotation Zrotation
              End Site
              {
                OFFSET -3.0 0.0 2.0
              }
            }
          }
        }
      }
      JOINT RightShoulder
      {
        OFFSET -16.191032 0.222631 5.090955
        CHANNELS 3 Xrotation Yrotation Zrotation
        JOINT RightArm
        {
          OFFSET -13.712075 14.695798 8.321647
          CHANNELS 3 Xrotation Yrotation Zrotation
          JOINT RightForeArm
          {
            OFFSET -17.210048 12.326384 -1.738171
            CHANNELS 3 Xrotation Yrotation Zrotation
            JOINT RightHand
            {
              OFFSET 4.902903 0.000000 0.980581
              CHANNELS 3 Xrotation Yrotation Zrotation
              End Site
              {
                OFFSET 3.0 0.0 2.0
              }
            }
          }
        }
      }
    }
  }
  JOINT LeftUpLeg
  {
    OFFSET 12.282434 -0.310965 -0.080493
    CHANNELS 3 Xrotation Yrotation Zrotation
    JOINT LeftLeg
    {
      OFFSET 9.663075 41.630832 -4.887251
      CHANNELS 3 Xrotation Yrotation Zrotation
      JOINT LeftFoot
      {
        OFFSET -5.787469 21.882853 26.702196
        CHANNELS 3 Xrotation Yrotation Zrotation
        JOINT LeftToeBase
        {
          OFFSET 2.886885 -1.000000 8.000000
          CHANNELS 3 Xrotation Yrotation Zrotation
          End Site
          {
            OFFSET 0.0 -1.0 3.0
          }
        }
      }
    }
  }
  JOINT RightUpLeg
  {
    OFFSET -12.282434 0.310965 0.080493
    CHANNELS 3 Xrotation Yrotation Zrotation
    JOINT RightLeg
    {
      OFFSET -1.472860 28.795469 -20.184857
      CHANNELS 3 Xrotation Yrotation Zrotation
      JOINT RightFoot
      {
        OFFSET 0.086358 39.286014 3.546105
        CHANNELS 3 Xrotation Yrotation Zrotation
        JOINT RightToeBase
        {
          OFFSET -4.442337 -1.000000 8.000000
          CHANNELS 3 Xrotation Yrotation Zrotation
          End Site
          {
            OFFSET 0.0 -1.0 3.0
          }
        }
      }
    }
  }
}
MOTION
Frames: 13
Frame Time: 0.033333
0.000000 0.000000 0.000000 0.240362 -22.873793 -4.223839 -25.624095 7.694819 1.439762 -4.496494 -19.084903 -26.905326 -86.143808 -55.282916 9.974717 0.000000 0.000000 0.000000 -1.401544 -0.718666 -20.542790 -54.154699 -3.282739 -36.286443 -65.561530 3.520329 -17.573361 0.000000 0.000000 0.000000 -29.582319 -21.993120 -21.541040 -23.996541 -39.999664 -7.480603 96.048435 61.075238 136.622435 0.000000 0.000000 0.000000 -2.208716 1.289716 5.553446 -28.807804 -8.386281 3.442299 -43.432163 17.881938 11.584147 0.000000 0.000000 0.000000 19.014050 -3.350293 -8.816625 -3.067545 -0.697742 11.086014 -56.966774 23.569686 -36.333553 0.000000 0.000000 0.000000
0.000000 0.000000 0.000000 0.030164 -7.314124 -3.757407 -24.907180 7.943077 0.424251 -5.614732 -10.646164 -23.718004 -55.904641 -42.652776 -3.802643 0.000000 0.000000 0.000000 -15.590496 3.569177 -20.086423 -55.944379 5.437167 -21.004779 -69.776870 5.387433 -9.931098 0.000000 0.000000 0.000000 -12.677064 0.261730 -26.117854 -8.105041 -21.661390 -21.396150 51.650189 46.595808 124.920704 0.000000 0.000000 0.000000 -3.261943 2.129615 9.072560 -25.804751 -6.210440 1.035722 -41.142116 13.353998 12.060269 0.000000 0.000000 0.000000 16.082546 -1.635946 -4.683320 6.919010 -0.785440 5.078129 -45.684650 23.593108 -28.406052 0.000000 0.000000 0.000000
0.000000 0.000000 0.000000 -0.000916 -4.014764 -3.535154 -22.654055 7.163872 0.664805 -6.420754 -7.179261 -24.342922 -53.248007 -41.664940 -6.964852 0.000000 0.000000 0.000000 -16.894185 3.630047 -21.668376 -46.948196 12.016462 -5.157549 -65.029370 5.198179 -10.217321 0.000000 0.000000 0.000000 -14.374620 -0.270819 -29.457940 -3.792668 -16.827515 -29.719921 30.466440 39.828841 114.560658 0.000000 0.000000 0.000000 -2.101942 1.912229 10.146786 -25.632596 -4.589884 -1.046060 -39.560263 15.226182 11.278137 0.000000 0.000000 0.000000 12.074493 -1.751061 -4.194344 8.633439 -0.471181 2.708038 -44.429440 23.766857 -27.558150 0.000000 0.000000 0.000000
0.000000 0.000000 0.000000 -0.000849 -3.517435 -3.652047 -17.325267 5.487409 0.730720 -6.475182 -7.202324 -24.563691 -54.536482 -43.099627 -8.832192 0.000000 0.000000 0.000000 -13.101432 2.753203 -20.415724 -39.744651 13.181766 2.398969 -60.431430 6.464743 -2.727214 0.000000 0.000000 0.000000 -15.147391 -0.044242 -31.878305 -2.570428 -15.769294 -33.305759 23.928545 37.282977 110.399064 0.000000 0.000000 0.000000 -0.968760 1.430429 9.332678 -26.997499 -0.100215 -7.282112 -35.414026 18.779385 9.689967 0.000000 0.000000 0.000000 8.373653 -2.394822 -4.684040 6.300864 -0.316269 2.070053 -44.699402 21.951316 -27.516118 0.000000 0.000000 0.000000
0.000000 0.000000 0.000000 0.010480 -3.187269 -4.286327 -13.994700 5.196798 -0.600235 -5.587175 -9.968852 -23.081370 -55.676638 -43.097354 -5.946819 0.000000 0.000000 0.000000 -10.883197 1.907794 -21.587416 -40.264105 14.726468 5.465621 -60.339863 8.115943 6.266352 0.000000 0.000000 0.000000 -14.634085 1.669957 -33.400292 -1.627909 -14.942137 -36.341258 18.550529 35.085748 105.601090 0.000000 0.000000 0.000000 -1.684372 1.526397 8.365054 -26.348095 4.030368 -12.286111 -36.906716 17.913937 10.157166 0.000000 0.000000 0.000000 7.480472 -2.348906 -4.458680 6.801442 -0.196609 1.206350 -45.284146 18.867439 -27.512051 0.000000 0.000000 0.000000
0.000000 0.000000 0.000000 0.016481 -2.205917 -5.693020 -9.035193 4.203429 -1.511145 -5.512030 -9.717846 -22.586615 -60.128498 -45.641761 -4.339203 0.000000 0.000000 0.000000 -11.656597 2.428399 -19.756137 -45.436655 15.697818 3.271667 -58.478099 12.106265 30.540711 0.000000 0.000000 0.000000 -11.506848 6.567434 -33.185048 -3.565037 -19.081617 -33.875188 21.203804 36.281868 107.760646 0.000000 0.000000 0.000000 -1.783244 1.395654 7.202081 -26.483075 7.169178 -16.237414 -36.992775 13.027738 11.050518 0.000000 0.000000 0.000000 8.631930 -2.849910 -5.490029 5.382096 -0.199078 1.357803 -46.257062 17.102604 -27.919374 0.000000 0.000000 0.000000
0.000000 0.000000 0.000000 0.004574 -1.479664 -6.603797 -7.107919 3.922565 -2.010405 -5.378707 -9.416335 -21.827720 -60.447740 -45.805048 -4.185844 0.000000 0.000000 0.000000 -11.235774 2.405756 -19.094961 -45.184804 16.648115 5.376036 -53.450830 11.647267 41.278255 0.000000 0.000000 0.000000 -10.449278 8.261037 -33.129728 -4.339447 -19.998683 -32.146620 21.326256 36.071445 108.977390 0.000000 0.000000 0.000000 -1.645278 1.187093 5.981639 -27.329776 8.147084 -17.876835 -35.960383 12.587015 10.857426 0.000000 0.000000 0.000000 9.514180 -2.363800 -4.828678 5.443621 -0.113566 0.733655 -44.689588 13.893954 -26.461507 0.000000 0.000000 0.000000
0.000000 0.000000 0.000000 0.034509 -2.045937 -7.630116 -7.969050 4.379217 -2.291470 -5.288537 -10.148724 -21.969660 -63.215412 -46.250493 -0.105635 0.000000 0.000000 0.000000 -13.684329 3.389990 -17.907651 -46.764650 17.528279 5.832231 -54.246058 11.712421 39.120556 0.000000 0.000000 0.000000 -11.022759 7.603338 -33.512891 -5.074938 -20.321569 -29.882296 23.469692 36.499916 112.456572 0.000000 0.000000 0.000000 -1.641254 1.071999 5.144382 -29.712452 7.702311 -18.595734 -34.082136 13.802843 10.185129 0.000000 0.000000 0.000000 9.883629 -2.985405 -5.960224 3.921191 -0.232618 1.793234 -44.470376 16.281079 -26.634457 0.000000 0.000000 0.000000
0.000000 0.000000 0.000000 0.042450 -2.086768 -8.165279 -9.413823 4.804903 -2.263385 -5.105419 -10.746421 -21.624737 -61.593133 -44.001300 3.856565 0.000000 0.000000 0.000000 -12.712474 2.960741 -18.555694 -43.668171 16.854205 7.061449 -53.216818 10.690298 35.473568 0.000000 0.000000 0.000000 -11.625907 5.070188 -31.327002 -4.840576 -18.227727 -27.711467 30.740009 39.014808 117.736551 0.000000 0.000000 0.000000 -1.919604 1.127706 4.980396 -34.111353 6.414835 -19.338322 -31.995965 14.049039 9.633057 0.000000 0.000000 0.000000 10.424092 -3.331529 -6.667746 2.791444 -0.098224 0.801442 -42.083732 14.180053 -24.829515 0.000000 0.000000 0.000000
0.000000 0.000000 0.000000 0.067798 -2.575176 -8.345622 -10.045437 5.112686 -2.447304 -4.549858 -11.748023 -19.905527 -67.405601 -46.927819 5.233849 0.000000 0.000000 0.000000 -12.009481 2.904403 -17.566341 -47.038927 18.519823 7.508206 -57.331557 12.648360 36.079123 0.000000 0.000000 0.000000 -13.803524 1.031820 -30.239611 -6.352681 -21.863896 -27.519029 41.325330 44.663156 117.323519 0.000000 0.000000 0.000000 -1.931988 1.053281 4.417072 -33.740014 6.476135 -19.210271 -32.960307 11.550583 10.221213 0.000000 0.000000 0.000000 15.433690 -2.992566 -7.174368 4.920436 -0.148952 1.032391 -41.790514 15.263753 -24.769087 0.000000 0.000000 0.000000
0.000000 0.000000 0.000000 0.064385 -2.501065 -8.353041 -10.590165 5.135626 -2.222584 -4.378180 -12.009033 -19.313337 -62.035291 -44.040135 4.575598 0.000000 0.000000 0.000000 -14.538324 4.002582 -16.189412 -46.141893 18.424842 8.076687 -57.868888 12.321758 33.034535 0.000000 0.000000 0.000000 -16.328937 -4.016162 -27.639675 -13.899519 -32.676912 -19.899881 63.933129 53.818439 122.513520 0.000000 0.000000 0.000000 -2.506184 1.217207 4.459007 -35.673879 6.074085 -19.767704 -33.842456 8.585744 10.886290 0.000000 0.000000 0.000000 18.264910 -2.873834 -7.635140 5.048146 -0.113052 0.755478 -42.468595 13.906042 -25.042348 0.000000 0.000000 0.000000
0.000000 0.000000 0.000000 0.048201 -2.171785 -8.313298 -16.087801 6.406315 -1.615977 -4.182342 -6.410984 -15.499603 -57.874349 -40.373609 9.170649 0.000000 0.000000 0.000000 -15.474624 5.297876 -11.507165 -42.259979 17.978904 10.658744 -55.111317 11.224104 33.496982 0.000000 0.000000 0.000000 -23.984651 -14.202880 -27.722760 -19.347787 -36.091295 -11.914266 51.271208 62.593829 91.878740 0.000000 0.000000 0.000000 -2.992104 1.331772 4.327909 -38.279886 5.867756 -21.049889 -34.755124 3.503024 11.903896 0.000000 0.000000 0.000000 18.792040 -2.927657 -7.882188 3.778362 -0.027861 0.157971 -41.539645 13.215756 -24.369481 0.000000 0.000000 0.000000
0.000000 0.000000 0.000000 0.054909 -2.322788 -8.281732 -11.396961 4.215509 -0.338545 -3.314352 -6.883756 -12.389306 -58.987986 -39.509830 14.754930 0.000000 0.000000 0.000000 -12.366985 5.274373 -5.025080 -38.781767 21.544284 21.848676 -56.524259 12.626189 38.030480 0.000000 0.000000 0.000000 -31.984988 -24.345550 -24.054242 -35.948430 -56.211146 -5.359518 40.706183 71.251381 63.196504 0.000000 0.000000 0.000000 -1.910721 1.047500 4.417536 -37.443590 5.425828 -19.875724 -36.395714 3.401346 12.470976 0.000000 0.000000 0.000000 20.006365 -2.881723 -8.111039 3.208872 -0.015283 0.069233 -40.598686 13.490460 -23.804890 0.000000 0.000000 0.000000
